<?xml version="1.0" standalone="no"?>
<!DOCTYPE svg PUBLIC "-//W3C//DTD SVG 20010904//EN"
 "http://www.w3.org/TR/2001/REC-SVG-20010904/DTD/svg10.dtd">
<svg version="1.0" xmlns="http://www.w3.org/2000/svg"
 width="260.000000pt" height="260.000000pt" viewBox="0 0 260.000000 260.000000"
 preserveAspectRatio="xMidYMid meet">
<metadata>
Created by potrace 1.11, written by Peter Selinger 2001-2013
</metadata>
<g transform="translate(0.000000,260.000000) scale(0.100000,-0.100000)"
fill="#000000" stroke="none">
<path d="M1503 2150 c-116 -21 -205 -86 -254 -185 -26 -53 -32 -80 -37 -154
-8 -140 18 -240 86 -329 14 -18 102 -101 196 -184 191 -167 254 -232 294 -298
25 -41 27 -54 27 -145 0 -89 -3 -104 -23 -133 -13 -18 -38 -40 -55 -49 -42
-22 -142 -22 -184 0 -72 38 -123 140 -139 275 l-6 60 -102 -27 -101 -27 3 -39
c10 -121 57 -243 121 -317 133 -151 413 -170 579 -39 109 86 156 261 117 429
-35 146 -106 238 -356 458 -108 95 -207 190 -220 211 -21 33 -24 50 -24 136
l0 98 41 39 c86 80 240 60 297 -37 23 -40 47 -126 47 -170 0 -17 4 -34 10 -38
9 -6 176 38 188 49 12 13 -27 170 -58 233 -39 80 -102 135 -183 162 -73 25
-191 34 -264 21z"/>
<path d="M770 1498 c0 -354 -5 -677 -10 -718 -15 -116 -50 -149 -170 -159
l-65 -6 0 -80 0 -80 115 1 c143 0 205 19 264 78 51 50 74 117 86 248 5 51 10
378 10 726 l0 632 -115 0 -115 0 0 -642z"/>
</g>
</svg>
